<svg width="171" height="86" viewBox="0 0 171 86" fill="none" xmlns="http://www.w3.org/2000/svg">
<path d="M168.103 69.0661C168.726 62.321 168.305 55.2138 166.565 47.9276C160.621 23.0304 140.432 4.41105 116.698 2.22861C92.5396 0.00691929 71.2658 14.1899 61.2335 35.5685C53.9457 29.3558 44.4027 26.0845 34.1214 27.5461C18.8253 29.7206 6.28046 42.6724 3.57502 59.0671C3.04697 62.2674 2.89341 65.46 3.07004 68.4987C3.56247 76.9689 10.2194 83.5503 18.0823 83.5503H153.146C160.806 83.5501 167.344 77.2928 168.103 69.0661Z" fill="#2577FF"/>
<path d="M166.558 48.2669C161.599 27.4956 146.711 11.1328 128.134 5C133.406 11.829 137.373 19.899 139.496 28.7941C141.236 36.0811 141.657 43.1876 141.035 49.9334C140.276 58.1601 133.737 64.4174 126.078 64.4174H3.05216C2.98221 65.9141 2.97944 67.3957 3.06323 68.8385C3.55567 77.3086 10.2126 83.89 18.0754 83.89H153.139C160.798 83.89 167.338 77.633 168.097 69.406C168.719 62.6605 168.298 55.5536 166.558 48.2669Z" fill="#030504"/>
<path d="M75.757 40.8035C75.4353 40.8035 75.1099 40.7425 74.791 40.614C73.3657 40.0381 72.6417 38.3238 73.1758 36.7854C78.6467 21.0033 93.327 10.8661 108.883 12.1016C110.401 12.2235 111.54 13.6509 111.427 15.2897C111.314 16.9275 109.996 18.1475 108.474 18.0355C95.3484 16.9753 82.9562 25.5495 78.3386 38.87C77.9241 40.0657 76.8728 40.8035 75.757 40.8035Z" fill="white"/>
</svg>
